<svg width="37" height="36" viewBox="0 0 37 36" fill="none" xmlns="http://www.w3.org/2000/svg">
<path fill-rule="evenodd" clip-rule="evenodd" d="M7.1967 23.1967C8.60322 21.7902 10.5109 21 12.5 21H24.5C26.4891 21 28.3968 21.7902 29.8033 23.1967C31.2098 24.6032 32 26.5109 32 28.5V31.5C32 32.3284 31.3284 33 30.5 33C29.6716 33 29 32.3284 29 31.5V28.5C29 27.3065 28.5259 26.1619 27.682 25.318C26.8381 24.4741 25.6935 24 24.5 24H12.5C11.3065 24 10.1619 24.4741 9.31802 25.318C8.47411 26.1619 8 27.3065 8 28.5V31.5C8 32.3284 7.32843 33 6.5 33C5.67157 33 5 32.3284 5 31.5V28.5C5 26.5109 5.79018 24.6032 7.1967 23.1967Z" fill="#141B4D"/>
<path fill-rule="evenodd" clip-rule="evenodd" d="M18.5 6C16.0147 6 14 8.01472 14 10.5C14 12.9853 16.0147 15 18.5 15C20.9853 15 23 12.9853 23 10.5C23 8.01472 20.9853 6 18.5 6ZM11 10.5C11 6.35786 14.3579 3 18.5 3C22.6421 3 26 6.35786 26 10.5C26 14.6421 22.6421 18 18.5 18C14.3579 18 11 14.6421 11 10.5Z" fill="#141B4D"/>
</svg>
